<?xml version="1.0" standalone="no"?>
<!DOCTYPE svg PUBLIC "-//W3C//DTD SVG 20010904//EN"
 "http://www.w3.org/TR/2001/REC-SVG-20010904/DTD/svg10.dtd">
<svg version="1.0" xmlns="http://www.w3.org/2000/svg"
 width="256.000000pt" height="256.000000pt" viewBox="0 0 256.000000 256.000000"
 preserveAspectRatio="xMidYMid meet">
<metadata>
Created by potrace 1.11, written by Peter Selinger 2001-2013
</metadata>
<g transform="translate(0.000000,256.000000) scale(0.100000,-0.100000)"
fill="#000000" stroke="none">
<path d="M1139 2546 c-2 -2 -23 -6 -46 -9 -316 -44 -627 -231 -831 -502 -89
-118 -192 -347 -217 -480 -57 -313 -22 -588 107 -840 34 -67 109 -184 148
-230 64 -77 194 -195 271 -247 133 -89 301 -163 426 -188 27 -5 57 -11 68 -14
83 -17 259 -23 355 -11 437 54 789 298 994 689 34 66 89 211 100 266 3 14 7
36 10 50 15 65 27 201 25 279 -10 503 -318 954 -785 1147 -151 62 -268 85
-455 90 -91 2 -168 2 -170 0z m366 -81 c163 -32 315 -95 454 -188 98 -66 252
-220 318 -320 244 -364 274 -812 82 -1202 -175 -356 -520 -605 -919 -663 -71
-10 -289 -6 -351 7 -30 6 -69 14 -85 17 -60 11 -181 57 -268 102 -330 170
-560 476 -633 841 -21 106 -24 297 -6 412 54 348 264 657 576 848 37 22 71 41
75 41 4 0 18 6 32 13 90 47 254 94 364 104 34 3 62 6 64 8 9 8 230 -7 297 -20z"/>
<path d="M1278 2202 c-7 -8 -69 -112 -138 -231 l-125 -216 -90 -2 c-50 -1
-171 -2 -270 -2 l-181 -1 -133 -231 c-73 -127 -130 -237 -127 -244 3 -8 40
-74 82 -147 43 -73 100 -172 127 -221 29 -52 55 -87 65 -88 10 0 131 -1 270
-1 l253 -1 24 -37 c13 -20 32 -52 42 -71 10 -19 60 -107 111 -196 l94 -161
269 0 268 -1 35 57 c40 67 166 285 208 359 l29 53 -24 42 c-13 24 -73 126
-132 228 -59 102 -108 190 -108 195 0 6 60 112 133 238 l132 227 -135 233
-135 232 -266 1 c-225 1 -268 -1 -278 -14z"/>
</g>
</svg>
